<?xml version="1.0" encoding="UTF-8"?>
<svg width="1200pt" height="1200pt" version="1.1" viewBox="0 0 1200 1200" xmlns="http://www.w3.org/2000/svg">
 <path d="m479.53 885h-75v75h-90v-75h-75v-90h75v-75h90v75h75zm405-165v75h75v90h-75v75h-90v-75h-75v-90h75v-75zm-165-405h75v-75h90v75h75v90h-75v75h-90v-75h-75zm-405 165v-75h-75v-90h75v-75h90v75h75v90h-75v75zm105.46-420h360v120h-120.46v360h360.46v-120h120v360h-120v-120h-360.46v360h120.46v120h-360v-120h119.54v-360h-359.53v120h-120v-360h120v120h359.53v-360h-119.54z"/>
</svg>
